<svg width="512" height="512" xmlns="http://www.w3.org/2000/svg">

 <g>
  <title>background</title>
  <rect fill="none" id="canvas_background" height="402" width="582" y="-1" x="-1"/>
 </g>
 <g>
  <title>Layer 1</title>
  <path transform="rotate(-180 260.9626159667969,109.45793151855469) " id="svg_2" fill="#e57f12" d="m260.962821,145.685433c0,0 -38.341,-72.455 0,-72.455c38.34,0.001 0,72.455 0,72.455z"/>
  <path transform="rotate(-180 358.6568603515625,160.52822875976562) " id="svg_3" fill="#e57f12" d="m330.188769,188.992139c0,0 24.128,-78.34 51.236,-51.221c27.101,27.101 -51.236,51.221 -51.236,51.221z"/>
  <path stroke-width="0" transform="rotate(-180 396.4727783203125,245.8377685546875) " id="svg_4" fill="#e57f12" d="m360.245769,245.842c0,0 72.462,-38.348 72.454,0c-0.016,38.329 -72.454,0 -72.454,0z"/>
  <path transform="rotate(-180 125.29402160644531,242.57937622070312) " id="svg_5" fill="#e57f12" d="m161.513535,242.568936c0,0 -72.439,38.364 -72.439,0c0.023,-38.317 72.439,0 72.439,0z"/>
  <path transform="rotate(-180 164.08489990234375,157.35658264160156) " id="svg_6" fill="#e57f12" d="m192.549433,185.817974c0,0 -78.344,-24.098 -51.221,-51.229c27.085,-27.08 51.221,51.229 51.221,51.229z"/>
  <path stroke="null" id="svg_7" fill="#e5d312" d="m436.313,290.907829c0,6.948462 -9.3,12.577932 -20.779,12.577932l-320.016,0c-11.483,0 -20.779,-5.629471 -20.779,-12.577932l0,0c0,-6.943619 9.296,-12.577932 20.779,-12.577932l320.017,0c11.479,-0.000605 20.778,5.634313 20.778,12.577932l0,0z"/>
  <path stroke="null" id="svg_8" fill="#e5b012" d="m436.313,323.088225c0,8.113327 -9.3,14.701161 -20.779,14.701161l-320.016,0c-11.483,0 -20.779,-6.587834 -20.779,-14.701161l0,0c0,-8.112619 9.296,-14.695503 20.779,-14.695503l320.017,0c11.479,-0.000707 20.778,6.582884 20.778,14.695503l0,0z"/>
  <path stroke="null" id="svg_9" fill="#e57f12" d="m436.842101,359.950901c0,9.280753 -9.3,16.817168 -20.779,16.817168l-320.016,0c-11.483,0 -20.779,-7.536415 -20.779,-16.817168l0,0c0,-9.281562 9.296,-16.812313 20.779,-16.812313l320.017,0c11.479,0 20.778,7.53156 20.778,16.812313l0,0z"/>
  <path stroke="null" stroke-width="0" id="svg_10" fill="#e5b012" d="m194.888,242.77c0,-35.754 28.986,-64.744 64.744,-64.744c35.761,0 64.755,28.99 64.755,64.744c0,9.989 -2.448,19.335 -6.49,27.774l25.215,0c2.91,-8.742 4.55,-18.054 4.55,-27.774c0,-48.603 -39.419,-88.014 -88.029,-88.014c-48.604,0 -88.022,39.411 -88.022,88.014c0,9.72 1.636,19.032 4.55,27.774l25.206,0c-4.023,-8.439 -6.479,-17.785 -6.479,-27.774z"/>
 </g>
</svg>